<svg width="800" height="800" viewBox="0 0 800 800" fill="none" xmlns="http://www.w3.org/2000/svg">
<path d="M400 100H300C244.772 100 200 144.772 200 200C200 255.228 244.772 300 300 300M400 100V300M400 100H500C555.23 100 600 144.772 600 200C600 255.228 555.23 300 500 300M300 300H400M300 300C244.772 300 200 344.77 200 400C200 455.23 244.772 500 300 500M400 300H500M400 300V500M500 300C555.23 300 600 344.77 600 400C600 455.23 555.23 500 500 500C444.77 500 400 455.23 400 400C400 344.77 444.77 300 500 300ZM400 500H300M400 500V600C400 655.23 355.23 700 300 700C244.772 700 200 655.23 200 600C200 544.77 244.772 500 300 500" stroke="#9D56F7" stroke-width="66.6667" stroke-linecap="round" stroke-linejoin="round"/>
</svg>
