<svg width="800" height="800" viewBox="0 0 800 800" fill="none" xmlns="http://www.w3.org/2000/svg">
<path d="M169.792 0.783203H205.78V36.3395H238.7V0.783203H274.691V108.454H238.703V72.3973H205.783V108.454H169.795V0.783203H169.792ZM322.014 36.4895H290.334V0.783203H389.7V36.4895H358.005V108.454H322.017V36.4895H322.014ZM405.469 0.783203H443L466.08 38.616L489.141 0.783203H526.677V108.454H490.836V55.0879L466.078 93.3691H465.461L440.686 55.0879V108.454H405.469V0.783203ZM544.591 0.783203H580.588V72.866H631.198V108.454H544.591V0.783203ZM117.164 157.697L168.642 735.093L399.648 799.218L631.295 735L682.828 157.696L117.164 157.697ZM575.448 294.719L572.225 330.621L570.809 346.539H570.577H399.997H399.75H299.819L306.291 419.05H399.75H399.997H545.278H564.363L562.634 438.069L545.994 624.507L544.928 636.463L399.997 676.633V676.646L399.672 676.738L254.611 636.466L244.688 525.277H277.453H315.777L320.819 581.755L399.684 603.055L399.75 603.035V603.028L478.736 581.716L486.95 489.871H399.997H399.75H241.525L224.12 294.719L222.425 275.724H399.75H399.997H577.144L575.448 294.719Z" fill="#DD4D25"/>
</svg>
