<svg width="800" height="800" viewBox="0 0 800 800" fill="none" xmlns="http://www.w3.org/2000/svg">
<g clip-path="url(#clip0_684_11)">
<path d="M379.319 5.1083C390.995 -1.70277 405.433 -1.70277 417.109 5.1083L727.825 186.358C739.345 193.078 746.43 205.412 746.43 218.75V581.25C746.43 594.59 739.345 606.92 727.825 613.64L417.109 794.89C405.433 801.705 390.995 801.705 379.319 794.89L301.641 749.58C283.751 739.145 277.708 716.18 288.144 698.29C298.579 680.405 321.542 674.36 339.431 684.795L398.215 719.085L671.43 559.71V240.289L398.215 80.914L125 240.289V559.71L180.84 592.285C198.049 597.805 219.306 599.155 234.288 592.535C241.239 589.465 247.516 584.465 252.484 575.535C257.713 566.135 262.5 550.49 262.5 525V262.5C262.5 241.79 279.29 225 300 225C320.71 225 337.5 241.79 337.5 262.5V525C337.5 559.51 331.052 588.58 318.023 611.995C304.735 635.88 285.733 651.8 264.596 661.14C224.281 678.95 179.761 671.65 152.499 661.855C150.343 661.08 148.262 660.11 146.283 658.955L68.605 613.64C57.084 606.92 50 594.59 50 581.25V218.75C50 205.412 57.084 193.078 68.605 186.358L379.319 5.1083ZM412.327 264.161C432.169 240.54 463.159 225 505.21 225C544.235 225 573.96 238.378 594.075 259.657C608.3 274.709 607.635 298.442 592.58 312.669C577.53 326.896 553.795 326.227 539.57 311.176C535.19 306.543 526.01 300 505.21 300C483.091 300 473.976 307.377 469.756 312.401C464.308 318.887 462.5 327.092 462.5 331.25C462.5 335.408 464.308 343.613 469.756 350.099C473.976 355.123 483.091 362.5 505.21 362.5C508.91 362.5 512.485 363.037 515.865 364.036C546.84 368.501 570.445 382.392 586.63 401.661C605.245 423.821 611.46 449.992 611.46 468.75C611.46 487.508 605.245 513.68 586.63 535.84C566.79 559.46 535.8 575 493.75 575C454.725 575 424.998 561.62 404.884 540.345C390.658 525.29 391.326 501.555 406.378 487.331C421.429 473.104 445.162 473.773 459.389 488.824C463.768 493.456 472.95 500 493.75 500C515.87 500 524.985 492.623 529.205 487.599C534.65 481.113 536.46 472.908 536.46 468.75C536.46 464.592 534.65 456.387 529.205 449.901C524.985 444.877 515.87 437.5 493.75 437.5C490.048 437.5 486.471 436.964 483.094 435.964C452.118 431.5 428.514 417.608 412.327 398.339C393.713 376.179 387.5 350.008 387.5 331.25C387.5 312.492 393.713 286.321 412.327 264.161Z" fill="#E8D44D"/>
</g>
<defs>
<clipPath id="clip0_684_11">
<rect width="800" height="800" fill="white"/>
</clipPath>
</defs>
</svg>
