<svg width="800" height="800" viewBox="0 0 800 800" fill="none" xmlns="http://www.w3.org/2000/svg">
<g clip-path="url(#clip0_684_7)">
<path d="M774.216 92.3086H492.309V184.124H585.57V246.616H492.309V307.693H584.616V369.232H492.309V430.77H584.616V492.309H492.309V553.847H584.616V615.386H492.309V707.693H774.216C788.401 707.693 800.001 695.662 800.001 680.924V119.078C800.001 104.339 788.401 92.3086 774.216 92.3086ZM738.462 615.386H615.386V553.847H738.462V615.386ZM738.462 492.309H615.386V430.77H738.462V492.309ZM738.462 369.232H615.386V307.693H738.462V369.232ZM738.462 246.155H615.386V184.616H738.462V246.155Z" fill="#00AB3E"/>
<path d="M0 88.8923V711.138L461.538 800V0L0 88.8923ZM291.938 556.308L238.246 454.8C236.215 451.015 234.123 444.062 231.938 433.938H231.108C230.092 438.708 227.692 445.969 223.908 455.692L170.031 556.308H86.3692L185.692 400.492L94.8308 244.646H180.246L224.8 338.092C228.277 345.477 231.385 354.246 234.154 364.369H235.015C236.769 358.277 240.031 349.231 244.8 337.2L294.338 244.615H372.554L279.108 399.138L375.169 556.277L291.938 556.308Z" fill="#00AB3E"/>
</g>
<defs>
<clipPath id="clip0_684_7">
<rect width="800" height="800" fill="white"/>
</clipPath>
</defs>
</svg>
