<svg width="1920" height="1080" viewBox="0 0 1920 1080" fill="none" xmlns="http://www.w3.org/2000/svg">
<rect width="1920" height="1080" fill="#019838"/>
<path d="M594.2 459.6V508.8C594.2 520.867 591.067 529.9 584.8 535.9C578.6 541.833 569.467 544.533 557.4 544C537.4 543.133 526.2 532.067 523.8 510.8V459.6H551.4V510.4C552.4 515 555.033 517.333 559.3 517.4C563.9 517.467 566.733 515.133 567.8 510.4V459.6H594.2ZM630.618 460V540H602.218V460H630.618ZM669.885 460H683.885L649.885 540H636.285L669.885 460ZM761.485 459.6V508.8C761.485 520.867 758.352 529.9 752.085 535.9C745.885 541.833 736.752 544.533 724.685 544C704.685 543.133 693.485 532.067 691.085 510.8V459.6H718.685V510.4C719.685 515 722.318 517.333 726.585 517.4C731.185 517.467 734.018 515.133 735.085 510.4V459.6H761.485ZM768.447 460H800.447L811.247 478L823.247 460H853.647L827.647 500L852.847 540H820.847L810.047 523.2L799.247 540H769.647L795.247 499.6L768.447 460ZM911.485 480.2L966.985 478.4C967.085 475.3 967.085 472.5 967.085 469.7V468.7H913.685V462H975.185V469.7C975.185 478 975.185 487 972.685 499.3L964.585 498.7C965.685 493.4 966.285 488.8 966.585 484.6L912.685 487.1L911.485 480.2ZM922.585 519.6V539.3H977.085V546H914.385V519.6H922.585ZM945.285 505.3H985.085V511.9H904.185V505.3H937.085V492.3H945.285V505.3ZM1046.38 507V483.2H1032.38V476.4H1046.38V459.3H1054.08V507H1046.38ZM1040.28 498.1L1035.88 504.4C1027.68 500.9 1021.78 494.3 1018.58 486.6C1015.48 495 1009.18 502.4 1000.58 506.3L996.177 500C1007.78 494.9 1014.68 483.3 1014.68 473.3V462.3H1022.58V473.2C1022.58 483.3 1029.08 493.5 1040.28 498.1ZM1063.68 539.6V528.2H1021.08V539.6H1063.68ZM1063.68 521.7V511.3H1071.78V546.2H1012.88V511.3H1021.08V521.7H1063.68ZM1063.88 457.8H1071.78V507.6H1063.88V457.8ZM1160.07 506.1V512.7H1098.47V465.5H1159.17V472.1H1106.77V485.4H1157.17V491.9H1106.77V506.1H1160.07ZM1087.97 529.1H1169.37V535.8H1087.97V529.1ZM1185.36 467.4H1227.36C1227.36 493.3 1215.46 516.1 1185.66 530.7L1181.26 524C1205.36 512.5 1217.36 495.3 1219.06 474H1185.36V467.4ZM1245.46 457.7H1253.66V547.4H1245.46V457.7ZM1327.95 465.9V472.1H1275.45V465.9H1297.55V457.2H1305.75V465.9H1327.95ZM1288.15 488.8C1288.15 493.4 1293.55 496.4 1301.65 496.4C1309.95 496.4 1315.25 493.4 1315.25 488.8C1315.25 484.1 1309.95 481.2 1301.65 481.2C1293.55 481.2 1288.15 484.1 1288.15 488.8ZM1330.15 505.7L1330.65 511.5C1311.15 514.7 1289.75 515 1273.65 515L1272.45 508.5C1279.95 508.5 1288.65 508.5 1297.55 508.2V502C1287.05 500.9 1280.45 496 1280.45 488.8C1280.45 480.6 1288.95 475.4 1301.65 475.4C1314.55 475.4 1323.05 480.6 1323.05 488.8C1323.05 496.1 1316.35 501 1305.75 502V507.8C1314.05 507.4 1322.35 506.8 1330.15 505.7ZM1285.35 528.5V522H1345.45V547.4H1337.25V528.5H1285.35ZM1337.25 457.9H1345.45V517.8H1337.25V457.9Z" fill="white"/>
<path d="M1704.76 682.869C1704.75 684.422 1704.73 685.755 1704.69 686.868C1704.66 687.972 1704.57 689.271 1704.41 690.765C1704.26 692.249 1704.01 693.865 1703.68 695.613L1699.93 695.232C1700.39 692.996 1700.68 690.984 1700.81 689.197C1700.94 687.4 1701 685.438 1701.01 683.309H1685.31V680.35H1704.76V682.869ZM1682.79 698.396H1691.49V689.227H1695.21V698.396H1707.11V701.443H1682.79V698.396ZM1731.19 693.855H1727.47V687.557H1723.31V684.539H1727.47V678.035H1731.19V693.855ZM1708.54 690.926C1709.94 690.457 1711.12 689.788 1712.07 688.919C1713.03 688.05 1713.75 687.073 1714.23 685.989C1714.71 684.905 1714.96 683.787 1714.99 682.635H1709.63V679.646H1724.1V682.635H1718.8C1718.83 683.709 1719.07 684.744 1719.51 685.74C1719.96 686.727 1720.64 687.615 1721.55 688.406C1722.47 689.197 1723.59 689.812 1724.92 690.252L1723.07 693.182C1721.65 692.723 1720.42 692.039 1719.38 691.131C1718.36 690.213 1717.55 689.139 1716.95 687.908C1716.35 689.305 1715.5 690.521 1714.42 691.556C1713.33 692.581 1712.02 693.357 1710.48 693.885L1708.54 690.926ZM1712.91 699.598C1712.91 698.533 1713.27 697.615 1714.01 696.844C1714.75 696.062 1715.81 695.467 1717.19 695.057C1718.56 694.646 1720.19 694.441 1722.08 694.441C1723.97 694.441 1725.61 694.646 1726.99 695.057C1728.36 695.467 1729.42 696.058 1730.16 696.829C1730.91 697.601 1731.28 698.523 1731.28 699.598C1731.28 700.672 1730.91 701.59 1730.16 702.352C1729.42 703.123 1728.36 703.709 1726.99 704.109C1725.61 704.52 1723.97 704.725 1722.08 704.725C1720.19 704.725 1718.56 704.52 1717.19 704.109C1715.81 703.709 1714.75 703.123 1714.01 702.352C1713.27 701.58 1712.91 700.662 1712.91 699.598ZM1716.63 699.598C1716.63 700.35 1717.09 700.921 1718.02 701.312C1718.95 701.692 1720.3 701.883 1722.08 701.883C1723.87 701.883 1725.22 701.692 1726.15 701.312C1727.08 700.931 1727.55 700.359 1727.56 699.598C1727.55 698.846 1727.08 698.279 1726.17 697.898C1725.26 697.508 1723.93 697.312 1722.18 697.312C1718.48 697.312 1716.63 698.074 1716.63 699.598ZM1758.96 695.936H1748.97V699.217H1745.28V695.936H1734.65V693.006H1758.96V695.936ZM1735.82 680.262H1744.93V677.889H1748.68V680.262H1757.7V683.074H1735.82V680.262ZM1737.49 697.576H1741.21V701.297H1756.33V704.227H1737.49V697.576ZM1737.84 687.85C1737.83 686.541 1738.59 685.54 1740.12 684.847C1741.67 684.153 1743.87 683.807 1746.72 683.807C1749.61 683.807 1751.83 684.153 1753.4 684.847C1754.97 685.53 1755.76 686.531 1755.77 687.85C1755.76 689.178 1754.98 690.198 1753.43 690.911C1751.87 691.614 1749.67 691.971 1746.8 691.98C1743.93 691.971 1741.72 691.614 1740.15 690.911C1738.6 690.198 1737.83 689.178 1737.84 687.85ZM1741.65 687.85C1741.64 688.357 1742.04 688.729 1742.86 688.963C1743.69 689.188 1745.01 689.305 1746.8 689.314C1748.58 689.305 1749.88 689.188 1750.7 688.963C1751.53 688.729 1751.94 688.357 1751.93 687.85C1751.94 687.352 1751.55 686.99 1750.75 686.766C1749.94 686.531 1748.69 686.414 1746.98 686.414C1745.12 686.414 1743.76 686.526 1742.91 686.751C1742.06 686.976 1741.64 687.342 1741.65 687.85Z" fill="white"/>
<rect x="160" y="565" width="1600" height="5" fill="white"/>
<path d="M1313.69 598.472C1313.69 602.183 1317.94 605.503 1321.73 606.211L1320.85 607.822C1317.58 607.065 1314.12 604.734 1312.72 601.523C1311.31 604.722 1307.87 607.053 1304.59 607.822L1303.71 606.211C1307.47 605.479 1311.69 602.207 1311.69 598.472V596.812H1313.69V598.472ZM1322.75 612.437V614.023H1302.88V612.437H1322.75ZM1334.4 597.471V611.46H1324.39V597.471H1334.4ZM1326.24 599.009V609.897H1332.49V599.009H1326.24ZM1340.28 595.273V603.94H1343.92V605.601H1340.28V616.978H1338.38V595.273H1340.28ZM1361.67 607.017V608.579H1346.66V597.153H1361.43V598.765H1348.61V601.987H1360.96V603.525H1348.61V607.017H1361.67ZM1363.96 612.559V614.146H1344.09V612.559H1363.96ZM1388.36 595.273V608.726H1386.53V595.273H1388.36ZM1384.43 595.664V608.652H1382.59V607.407H1378.74V606.016H1382.59V595.664H1384.43ZM1369.85 603.721C1372.85 603.721 1377.76 603.672 1381.4 603.11L1381.54 604.404C1380.04 604.722 1378.38 604.917 1376.74 605.039V608.652H1374.88V605.137C1373.1 605.222 1371.41 605.234 1370.07 605.234L1369.85 603.721ZM1375.61 609.507V611.558H1386.45V609.507H1388.36V616.685H1373.73V609.507H1375.61ZM1375.61 615.146H1386.45V613.096H1375.61V615.146ZM1375.73 596.055C1378.57 596.055 1380.5 597.275 1380.5 599.277C1380.5 601.23 1378.57 602.476 1375.73 602.476C1372.9 602.476 1371 601.23 1371 599.277C1371 597.275 1372.9 596.055 1375.73 596.055ZM1375.73 597.446C1373.9 597.422 1372.76 598.13 1372.76 599.277C1372.76 600.4 1373.9 601.084 1375.73 601.084C1377.57 601.084 1378.74 600.4 1378.76 599.277C1378.74 598.13 1377.57 597.422 1375.73 597.446ZM1407.89 596.348V598.154C1407.89 600.181 1407.89 602.378 1407.3 605.356L1405.4 605.186C1405.67 603.916 1405.81 602.781 1405.91 601.743L1392.68 602.378L1392.41 600.742L1405.98 600.303C1406.01 599.546 1406.01 598.838 1406.01 598.154V597.91H1392.95V596.348H1407.89ZM1410.35 606.821V608.384H1390.6V606.821H1398.66V603.623H1400.59V606.821H1410.35ZM1408.4 615.073V616.636H1393.12V610.239H1395.05V615.073H1408.4ZM1429.62 595.298V611.558H1427.79V595.298H1429.62ZM1425.39 595.737V610.996H1423.54V603.013H1420.61V601.475H1423.54V595.737H1425.39ZM1430.28 614.902V616.514H1415.46V609.751H1417.41V614.902H1430.28ZM1420.49 597.08V598.667H1414.04V601.67H1419.58V603.184H1414.04V606.357C1417.18 606.345 1419.13 606.26 1421.46 605.771L1421.66 607.334C1419.14 607.847 1417.09 607.944 1413.58 607.944H1412.21V597.08H1420.49ZM1451.67 612.583V614.194H1431.79V612.583H1451.67ZM1442.68 600.352C1442.68 603.94 1446.27 606.65 1450.4 607.383L1449.61 608.945C1446.18 608.25 1443.06 606.37 1441.7 603.525C1440.32 606.37 1437.2 608.25 1433.77 608.945L1433.01 607.383C1437.11 606.65 1440.73 603.94 1440.73 600.352H1433.65V598.789H1440.75V595.811H1442.63V598.789H1449.76V600.352H1442.68ZM1470.32 597.324H1472.52V609.019C1472.52 612.656 1469.81 615.317 1465.63 615.317C1461.46 615.317 1458.75 612.656 1458.75 609.019V597.324H1460.94V608.848C1460.94 611.411 1462.73 613.267 1465.63 613.267C1468.56 613.267 1470.32 611.411 1470.32 608.848V597.324ZM1477.62 597.324V615H1475.42V597.324H1477.62ZM1486.56 596.494L1480.84 617.661H1478.94L1484.63 596.494H1486.56ZM1499.45 597.324H1501.65V609.019C1501.65 612.656 1498.94 615.317 1494.76 615.317C1490.59 615.317 1487.88 612.656 1487.88 609.019V597.324H1490.07V608.848C1490.07 611.411 1491.86 613.267 1494.76 613.267C1497.69 613.267 1499.45 611.411 1499.45 608.848V597.324ZM1505.67 597.324L1510.17 604.624H1510.31L1514.83 597.324H1517.42L1511.88 606.162L1517.42 615H1514.83L1510.31 607.847H1510.17L1505.65 615H1503.06L1508.75 606.162L1503.06 597.324H1505.67ZM1540.96 595.273V617.026H1539.03V595.273H1540.96ZM1534.8 597.349V598.96H1526.4V609.971C1530.63 609.971 1533.41 609.836 1536.66 609.263L1536.85 610.874C1533.48 611.484 1530.63 611.606 1526.23 611.631H1524.48V597.349H1534.8ZM1551.01 601.938C1550.99 605.43 1553.5 609.263 1556.65 610.752L1555.56 612.266C1553.11 611.082 1551.05 608.494 1550.09 605.552C1549.09 608.75 1546.9 611.558 1544.47 612.803L1543.3 611.289C1546.42 609.775 1549.11 605.649 1549.13 601.938V599.106H1544.08V597.52H1555.9V599.106H1551.01V601.938ZM1560.46 595.273V604.062H1564.1V605.698H1560.46V616.978H1558.56V595.273H1560.46ZM1582.19 595.298V611.167H1580.29V595.298H1582.19ZM1582.88 614.902V616.514H1568.18V609.556H1570.08V614.902H1582.88ZM1570.47 596.812C1573.72 596.812 1576.16 599.009 1576.16 602.134C1576.16 605.308 1573.72 607.48 1570.47 607.48C1567.23 607.48 1564.79 605.308 1564.79 602.134C1564.79 599.009 1567.23 596.812 1570.47 596.812ZM1570.47 598.496C1568.28 598.496 1566.64 600.01 1566.67 602.134C1566.64 604.307 1568.28 605.796 1570.47 605.796C1572.62 605.796 1574.28 604.307 1574.28 602.134C1574.28 600.01 1572.62 598.496 1570.47 598.496ZM1595.96 615.244C1592.5 615.244 1590.32 613.169 1590.32 610.312C1590.32 608.164 1591.74 606.858 1593.82 605.405C1592.61 603.965 1591.76 602.744 1591.76 601.182C1591.76 598.789 1593.45 597.153 1596.06 597.153C1598.72 597.153 1600.36 598.862 1600.36 600.864C1600.36 602.549 1599.46 603.721 1598.01 604.795L1596.72 605.771L1600.53 610.386C1600.98 609.507 1601.26 608.445 1601.26 607.236H1603.29C1603.29 609.69 1602.54 611.143 1601.87 612.021L1604.31 615H1601.8L1600.55 613.511C1599.41 614.658 1597.6 615.244 1595.96 615.244ZM1592.47 610.312C1592.47 611.948 1593.84 613.389 1595.92 613.389C1597.11 613.389 1598.33 612.9 1599.31 611.997L1595.11 606.968L1594.5 607.432C1592.91 608.579 1592.47 609.8 1592.47 610.312ZM1593.86 601.206C1593.86 602.183 1594.58 603.171 1595.45 604.209L1596.62 603.354C1597.6 602.695 1598.26 602.061 1598.26 600.864C1598.26 599.985 1597.38 598.96 1596.13 598.96C1594.79 598.96 1593.86 600.107 1593.86 601.206ZM1629.54 612.559V614.194H1609.66V612.559H1629.54ZM1627.63 597.471V599.058H1624.19V606.65H1627.58V608.213H1611.47V606.65H1614.86V599.058H1611.42V597.471H1627.63ZM1616.77 606.65H1622.31V599.058H1616.77V606.65ZM1650.12 607.676V609.263H1630.24V607.676H1639.23V605.283H1632.83V599.937H1645.62V597.52H1632.76V595.981H1647.55V601.353H1634.74V603.77H1648.02V605.283H1641.11V607.676H1650.12ZM1648.02 615.171V616.758H1632.88V610.728H1634.81V615.171H1648.02ZM1668.45 607.017V608.579H1653.44V597.153H1668.21V598.765H1655.39V601.987H1667.75V603.525H1655.39V607.017H1668.45ZM1670.75 612.559V614.146H1650.88V612.559H1670.75ZM1676.68 596.982C1679.31 596.982 1681.31 598.789 1681.61 601.499H1683.96V595.713H1685.76V610.898H1683.96V603.11H1681.61C1681.25 605.747 1679.27 607.505 1676.68 607.48C1673.78 607.505 1671.7 605.356 1671.73 602.256C1671.7 599.131 1673.78 596.982 1676.68 596.982ZM1676.68 598.643C1674.83 598.643 1673.43 600.156 1673.46 602.256C1673.43 604.355 1674.83 605.845 1676.68 605.845C1678.54 605.845 1679.9 604.355 1679.93 602.256C1679.9 600.156 1678.54 598.643 1676.68 598.643ZM1689.91 595.273V611.533H1688.08V595.273H1689.91ZM1690.57 614.902V616.514H1675.68V609.434H1677.58V614.902H1690.57ZM1709.62 605.723V607.31H1694.63V597.3H1709.4V598.887H1696.53V605.723H1709.62ZM1711.96 612.412V614.023H1692.09V612.412H1711.96ZM1722.66 615V616.929H1711.6V615H1722.66ZM1728.88 615H1723.39V597.324H1729.1C1734.25 597.324 1737.3 600.645 1737.3 606.138C1737.3 611.655 1734.25 615 1728.88 615ZM1725.59 613.047H1728.74C1733.08 613.047 1735.16 610.435 1735.16 606.138C1735.16 601.865 1733.08 599.277 1728.96 599.277H1725.59V613.047ZM1755.42 595.298V601.865H1758.69V603.477H1755.42V611.24H1753.52V595.298H1755.42ZM1756.42 614.902V616.514H1741.85V609.678H1743.73V614.902H1756.42ZM1741.26 596.86V600.522H1747.58V596.86H1749.49V607.578H1739.38V596.86H1741.26ZM1741.26 606.016H1747.58V602.036H1741.26V606.016Z" fill="white"/>
<path d="M1527.06 632.934V634.521H1524.84V641.454C1525.85 641.393 1526.83 641.308 1527.77 641.186L1527.87 642.65C1523.64 643.31 1518.69 643.358 1515.17 643.358L1514.93 641.747C1515.79 641.747 1516.73 641.747 1517.74 641.723V634.521H1515.54V632.934H1527.06ZM1532.87 631.273V644.677H1530.94V640.648H1527.28V639.062H1530.94V636.767H1527.28V635.18H1530.94V631.273H1532.87ZM1525.67 645.141C1530.21 645.141 1532.95 646.557 1532.95 649.022C1532.95 651.513 1530.21 652.929 1525.67 652.929C1521.13 652.929 1518.39 651.513 1518.39 649.022C1518.39 646.557 1521.13 645.141 1525.67 645.141ZM1525.67 646.63C1522.33 646.63 1520.27 647.533 1520.3 649.022C1520.27 650.536 1522.33 651.415 1525.67 651.415C1529.01 651.415 1531.04 650.536 1531.04 649.022C1531.04 647.533 1529.01 646.63 1525.67 646.63ZM1519.59 641.698C1520.7 641.674 1521.85 641.637 1522.98 641.576V634.521H1519.59V641.698ZM1552.28 631.273V640.111H1555.8V641.723H1552.28V652.978H1550.38V631.273H1552.28ZM1546.67 633.617C1546.67 639.77 1543.79 645.36 1536.71 648.852L1535.63 647.338C1541.25 644.542 1544.3 640.368 1544.74 635.229H1536.63V633.617H1546.67ZM1562.24 632.079C1565.49 632.104 1567.86 634.057 1567.86 636.889C1567.86 639.721 1565.49 641.674 1562.24 641.674C1558.95 641.674 1556.6 639.721 1556.6 636.889C1556.6 634.057 1558.95 632.104 1562.24 632.079ZM1562.24 633.69C1560.07 633.69 1558.46 635.009 1558.48 636.889C1558.46 638.793 1560.07 640.111 1562.24 640.111C1564.39 640.111 1566 638.793 1566 636.889C1566 635.009 1564.39 633.69 1562.24 633.69ZM1574.01 631.273V642.431H1572.11V631.273H1574.01ZM1574.01 643.48V648.705H1561.83V651.146H1574.79V652.685H1559.95V647.265H1572.11V645.019H1559.9V643.48H1574.01ZM1578.99 651.146C1578.14 651.146 1577.41 650.438 1577.43 649.56C1577.41 648.705 1578.14 647.997 1578.99 647.997C1579.85 647.997 1580.56 648.705 1580.56 649.56C1580.56 650.438 1579.85 651.146 1578.99 651.146ZM1578.99 641.332C1578.14 641.332 1577.41 640.624 1577.43 639.745C1577.41 638.891 1578.14 638.183 1578.99 638.183C1579.85 638.183 1580.56 638.891 1580.56 639.745C1580.56 640.624 1579.85 641.332 1578.99 641.332ZM1588.1 651L1588.08 649.389L1594.11 643.041C1596.21 640.819 1597.21 639.623 1597.21 637.987C1597.21 636.181 1595.67 634.984 1593.69 634.984C1591.59 634.984 1590.25 636.327 1590.25 638.305H1588.17C1588.15 635.18 1590.57 633.08 1593.77 633.08C1596.96 633.08 1599.26 635.229 1599.26 637.987C1599.26 639.965 1598.33 641.503 1595.21 644.726L1591.15 648.9V649.047H1599.58V651H1588.1ZM1607.56 651.244C1603.63 651.244 1601.38 647.948 1601.38 642.162C1601.38 636.425 1603.68 633.08 1607.56 633.08C1611.44 633.08 1613.74 636.425 1613.74 642.162C1613.74 647.948 1611.47 651.244 1607.56 651.244ZM1607.56 649.291C1610.1 649.291 1611.59 646.728 1611.59 642.162C1611.59 637.597 1610.1 634.984 1607.56 634.984C1605.02 634.984 1603.51 637.597 1603.51 642.162C1603.51 646.728 1605 649.291 1607.56 649.291ZM1615.67 651L1615.64 649.389L1621.67 643.041C1623.77 640.819 1624.77 639.623 1624.77 637.987C1624.77 636.181 1623.24 634.984 1621.26 634.984C1619.16 634.984 1617.82 636.327 1617.82 638.305H1615.74C1615.72 635.18 1618.13 633.08 1621.33 633.08C1624.53 633.08 1626.82 635.229 1626.82 637.987C1626.82 639.965 1625.9 641.503 1622.77 644.726L1618.72 648.9V649.047H1627.14V651H1615.67ZM1635.44 651.244C1631.93 651.244 1629.41 649.364 1629.29 646.557H1631.51C1631.63 648.241 1633.32 649.291 1635.42 649.291C1637.74 649.291 1639.45 648.021 1639.45 646.19C1639.45 644.262 1637.91 642.895 1635.15 642.895H1633.71V640.966H1635.15C1637.3 640.966 1638.79 639.77 1638.79 637.938C1638.79 636.181 1637.49 634.984 1635.49 634.984C1633.61 634.984 1631.88 636.034 1631.78 637.768H1629.66C1629.78 634.96 1632.37 633.08 1635.52 633.08C1638.89 633.08 1640.94 635.277 1640.91 637.816C1640.94 639.818 1639.76 641.308 1637.91 641.82V641.942C1640.2 642.309 1641.62 643.944 1641.6 646.19C1641.62 649.096 1638.96 651.244 1635.44 651.244ZM1660.98 631.298V647.362H1659.05V639.843H1652.8V638.305H1659.05V635.692H1652.8V634.154H1659.05V631.298H1660.98ZM1661.57 650.902V652.514H1646.99V645.995H1648.92V650.902H1661.57ZM1646.21 632.86V642.504C1649.2 642.492 1652.08 642.333 1655.39 641.723L1655.59 643.31C1652.05 643.969 1649.09 644.115 1645.92 644.14H1644.28V632.86H1646.21ZM1675.53 633.08C1678.59 633.104 1681.96 634.936 1681.96 641.454C1681.96 647.729 1679.39 651.244 1675.24 651.244C1672.14 651.244 1669.94 649.34 1669.5 646.532H1671.68C1672.07 648.119 1673.26 649.291 1675.24 649.291C1678.12 649.291 1679.88 646.801 1679.9 642.504H1679.66C1678.63 643.969 1677.02 644.848 1675.14 644.848C1671.97 644.848 1669.36 642.431 1669.36 639.013C1669.36 635.717 1671.77 633.056 1675.53 633.08ZM1675.53 635.009C1673.21 635.009 1671.48 636.815 1671.51 638.988C1671.51 641.186 1673.14 642.919 1675.46 642.919C1677.76 642.919 1679.56 641.015 1679.56 638.939C1679.56 636.913 1677.88 635.009 1675.53 635.009ZM1701.1 631.298V644.091H1699.17V642.895H1694.77V641.625H1699.17V631.298H1701.1ZM1683.13 639.477C1687.33 639.501 1692.7 639.452 1697.39 638.939L1697.51 640.185C1695.38 640.49 1693.17 640.673 1691.01 640.771V644.164H1689.13V640.844C1687.08 640.917 1685.12 640.929 1683.35 640.917L1683.13 639.477ZM1701.1 644.872V649.364H1688.43V651.317H1701.8V652.733H1686.55V648.021H1699.19V646.264H1686.45V644.872H1701.1ZM1690.21 631.713C1693.43 631.713 1695.58 632.982 1695.6 634.984C1695.58 637.011 1693.43 638.231 1690.21 638.231C1686.94 638.231 1684.81 637.011 1684.81 634.984C1684.81 632.982 1686.94 631.713 1690.21 631.713ZM1690.21 633.056C1688.01 633.056 1686.59 633.812 1686.62 634.984C1686.59 636.132 1688.01 636.913 1690.21 636.913C1692.38 636.913 1693.8 636.132 1693.8 634.984C1693.8 633.812 1692.38 633.056 1690.21 633.056ZM1715.65 651.244C1711.72 651.244 1709.47 647.948 1709.47 642.162C1709.47 636.425 1711.77 633.08 1715.65 633.08C1719.53 633.08 1721.83 636.425 1721.83 642.162C1721.83 647.948 1719.56 651.244 1715.65 651.244ZM1715.65 649.291C1718.19 649.291 1719.68 646.728 1719.68 642.162C1719.68 637.597 1718.19 634.984 1715.65 634.984C1713.11 634.984 1711.6 637.597 1711.6 642.162C1711.6 646.728 1713.09 649.291 1715.65 649.291ZM1723.32 647.387V645.58L1731.28 633.324H1733.99V645.458H1736.45V647.387H1733.99V651H1731.89V647.387H1723.32ZM1725.68 645.458H1731.89V636.107H1731.67L1725.68 645.312V645.458ZM1743.73 632.079C1746.97 632.104 1749.34 634.057 1749.34 636.889C1749.34 639.721 1746.97 641.674 1743.73 641.674C1740.43 641.674 1738.09 639.721 1738.09 636.889C1738.09 634.057 1740.43 632.104 1743.73 632.079ZM1743.73 633.69C1741.55 633.69 1739.94 635.009 1739.97 636.889C1739.94 638.793 1741.55 640.111 1743.73 640.111C1745.88 640.111 1747.49 638.793 1747.49 636.889C1747.49 635.009 1745.88 633.69 1743.73 633.69ZM1755.5 631.273V642.431H1753.59V631.273H1755.5ZM1755.5 643.48V648.705H1743.31V651.146H1756.28V652.685H1741.43V647.265H1753.59V645.019H1741.38V643.48H1755.5Z" fill="white"/>
</svg>
